<svg width="21" height="21" viewBox="0 0 21 21" fill="none" xmlns="http://www.w3.org/2000/svg">
<path d="M2.33334 21C1.69167 21 1.14217 20.7717 0.684835 20.3152C0.227502 19.8586 -0.000775797 19.3091 1.98076e-06 18.6667V2.33334C1.98076e-06 1.69167 0.228669 1.14217 0.686002 0.684835C1.14334 0.227502 1.69245 -0.000775797 2.33334 1.98076e-06H18.6667C19.3083 1.98076e-06 19.8578 0.228668 20.3152 0.686002C20.7725 1.14334 21.0008 1.69245 21 2.33334V18.6667C21 19.3083 20.7713 19.8578 20.314 20.3152C19.8567 20.7725 19.3076 21.0008 18.6667 21H2.33334ZM5.83334 16.3333C6.16389 16.3333 6.44117 16.2217 6.66517 15.9985C6.88917 15.7753 7.00078 15.498 7 15.1667C7 14.8361 6.888 14.5592 6.664 14.336C6.44 14.1128 6.16311 14.0008 5.83334 14C5.50278 14 5.2255 14.112 5.0015 14.336C4.7775 14.56 4.66589 14.8369 4.66667 15.1667C4.66667 15.4972 4.77867 15.7745 5.00267 15.9985C5.22667 16.2225 5.50356 16.3341 5.83334 16.3333ZM5.83334 11.6667C6.16389 11.6667 6.44117 11.5551 6.66517 11.3318C6.88917 11.1086 7.00078 10.8313 7 10.5C7 10.1694 6.888 9.89217 6.664 9.66817C6.44 9.44417 6.16311 9.33256 5.83334 9.33333C5.50278 9.33333 5.2255 9.44533 5.0015 9.66933C4.7775 9.89333 4.66589 10.1702 4.66667 10.5C4.66667 10.8306 4.77867 11.1078 5.00267 11.3318C5.22667 11.5558 5.50356 11.6674 5.83334 11.6667ZM5.83334 7C6.16389 7 6.44117 6.88839 6.66517 6.66517C6.88917 6.44195 7.00078 6.16467 7 5.83333C7 5.50278 6.888 5.2255 6.664 5.0015C6.44 4.7775 6.16311 4.66589 5.83334 4.66667C5.50278 4.66667 5.2255 4.77867 5.0015 5.00267C4.7775 5.22667 4.66589 5.50356 4.66667 5.83333C4.66667 6.16389 4.77867 6.44117 5.00267 6.66517C5.22667 6.88917 5.50356 7.00078 5.83334 7ZM10.5 16.3333H15.1667C15.4972 16.3333 15.7745 16.2217 15.9985 15.9985C16.2225 15.7753 16.3341 15.498 16.3333 15.1667C16.3333 14.8361 16.2213 14.5592 15.9973 14.336C15.7733 14.1128 15.4964 14.0008 15.1667 14H10.5C10.1694 14 9.89217 14.112 9.66817 14.336C9.44417 14.56 9.33256 14.8369 9.33334 15.1667C9.33334 15.4972 9.44534 15.7745 9.66934 15.9985C9.89334 16.2225 10.1702 16.3341 10.5 16.3333ZM10.5 11.6667H15.1667C15.4972 11.6667 15.7745 11.5551 15.9985 11.3318C16.2225 11.1086 16.3341 10.8313 16.3333 10.5C16.3333 10.1694 16.2213 9.89217 15.9973 9.66817C15.7733 9.44417 15.4964 9.33256 15.1667 9.33333H10.5C10.1694 9.33333 9.89217 9.44533 9.66817 9.66933C9.44417 9.89333 9.33256 10.1702 9.33334 10.5C9.33334 10.8306 9.44534 11.1078 9.66934 11.3318C9.89334 11.5558 10.1702 11.6674 10.5 11.6667ZM10.5 7H15.1667C15.4972 7 15.7745 6.88839 15.9985 6.66517C16.2225 6.44195 16.3341 6.16467 16.3333 5.83333C16.3333 5.50278 16.2213 5.2255 15.9973 5.0015C15.7733 4.7775 15.4964 4.66589 15.1667 4.66667H10.5C10.1694 4.66667 9.89217 4.77867 9.66817 5.00267C9.44417 5.22667 9.33256 5.50356 9.33334 5.83333C9.33334 6.16389 9.44534 6.44117 9.66934 6.66517C9.89334 6.88917 10.1702 7.00078 10.5 7Z" fill="black"/>
</svg>
